<svg xmlns="http://www.w3.org/2000/svg" width="1600" height="420" viewBox="0 0 760 200">
  <g transform="translate(16 28) scale(1.2)">
    
<g fill="none" stroke-linecap="round" stroke-linejoin="round">
  <path d="M28 12H72L98 38V98C98 104.627 92.627 110 86 110H28C21.373 110 16 104.627 16 98V24C16 17.373 21.373 12 28 12Z"
        stroke="#1F1F1F" stroke-width="9"/>
  <path d="M72 12V34C72 36.209 73.791 38 76 38H98"
        stroke="#1F1F1F" stroke-width="9"/>
  <path d="M36 42V82" stroke="#1F1F1F" stroke-width="9"/>
  <path d="M38 64L62 43" stroke="#1F1F1F" stroke-width="9"/>
  <path d="M38 64L57 81" stroke="#1F1F1F" stroke-width="9"/>
  <path d="M54 81L68 94L91 68" stroke="#1F1F1F" stroke-width="9"/>
</g>

  </g>
  <text x="180" y="112"
        fill="#1F1F1F"
        font-family="Inter, Arial, Helvetica, sans-serif"
        font-size="78"
        font-weight="700"
        letter-spacing="-2">KlarOrder</text>
</svg>